<?xml version="1.0" encoding="UTF-8"?><svg id="a" xmlns="http://www.w3.org/2000/svg" viewBox="0 0 550.74 162.87"><defs><style>.b{fill:#1b1464;}.c{fill:#29abe2;}</style></defs><g><path class="b" d="M501.78,98.63h-26.44V15.61h26.44V98.63Z"/><g><g><polygon class="b" points="475.32 113.31 544.06 113.31 538.99 102.64 475.32 102.64 475.32 113.31"/><polygon class="b" points="460.02 102.64 396.77 102.64 414.4 69.22 429.2 98.54 457.97 98.54 457.6 97.8 457.64 97.8 414.77 15.42 364.43 113.31 465.35 113.31 460.02 102.64"/></g><g><polygon class="b" points="475.32 127.61 550.74 127.61 545.4 118.48 475.32 118.48 475.32 127.61"/><polygon class="b" points="467.94 118.48 361.38 118.48 356.2 127.61 472.5 127.61 467.94 118.48"/></g></g><g><path class="c" d="M307.67,.14c-1.41,.09-2.82,.23-4.24,.41-2.88,.37-5.72,.98-8.54,1.84-6.86,1.84-13.13,4.75-18.82,8.72-5.69,3.98-10.62,8.72-14.78,14.23-4.16,5.51-7.41,11.54-9.73,18.09-.62,1.74-1.15,3.49-1.6,5.26L307.67,.14Z"/><path class="b" d="M355.85,88.68l-6.24-3.67c-.61-.37-1.38-.83-2.3-1.38s-1.99-1.25-3.21-2.11c-4.29,6.61-9.24,11.45-14.87,14.51-5.63,3.06-11.38,4.59-17.26,4.59-4.65,0-9.18-.83-13.59-2.48-4.41-1.65-8.35-4.04-11.84-7.16-3.49-3.12-6.31-6.98-8.45-11.57-2.14-4.59-3.21-9.82-3.21-15.7s1.07-11.11,3.21-15.7c2.14-4.59,4.96-8.45,8.45-11.57,3.49-3.12,7.44-5.51,11.84-7.16,4.41-1.65,8.93-2.48,13.59-2.48,5.88,0,11.63,1.53,17.26,4.59,5.63,3.06,10.59,7.9,14.87,14.51l23.5-14.14c-6.37-10.4-14.44-18.3-24.24-23.69-7.74-4.26-15.9-6.82-24.48-7.72l-70.67,59.45c-.08,1.29-.14,2.59-.14,3.9,0,6.98,1.19,13.71,3.58,20.2,2.39,6.49,5.69,12.46,9.92,17.9,4.22,5.45,9.21,10.19,14.96,14.23,5.75,4.04,11.93,7.1,18.54,9.18,5.51,1.47,11.08,2.2,16.71,2.2,11.38,0,21.91-2.78,31.58-8.35,9.67-5.57,17.69-13.37,24.05-23.41l-5.51-3.12c-1.72-.73-3.74-2.02-6.06-3.86Z"/></g><g><path class="b" d="M167.65,127.57c.53,.01,1.06,.04,1.59,.04,7.83,0,15.15-1.47,21.94-4.41,6.79-2.94,12.73-6.95,17.81-12.03,5.08-5.08,9.09-11.02,12.03-17.81,1.92-4.45,3.21-9.1,3.87-13.94l-57.24,48.15Z"/><path class="c" d="M157.57,126.4l67.81-57.04c-.26-6.99-1.7-13.56-4.35-19.7-2.94-6.79-6.95-12.73-12.03-17.81-5.08-5.08-11.02-9.09-17.81-12.03-6.79-2.94-14.11-4.41-21.94-4.41s-14.96,1.47-21.76,4.41-12.73,6.95-17.81,12.03-9.09,11.02-12.03,17.81c-2.94,6.79-4.41,14.11-4.41,21.94s1.47,14.96,4.41,21.76c2.94,6.79,6.95,12.73,12.03,17.81,5.08,5.08,11.02,9.09,17.81,12.03,3.25,1.41,6.62,2.47,10.08,3.2Zm-17.89-54.79c0-4.14,.79-8,2.39-11.59,1.59-3.59,3.7-6.69,6.33-9.3,2.63-2.62,5.75-4.68,9.36-6.21,3.61-1.52,7.44-2.28,11.48-2.28s8.05,.76,11.66,2.28c3.61,1.52,6.73,3.59,9.36,6.21,2.63,2.62,4.74,5.72,6.33,9.3,1.59,3.59,2.39,7.45,2.39,11.59s-.8,7.79-2.39,11.32c-1.59,3.53-3.7,6.63-6.33,9.3-2.63,2.68-5.75,4.77-9.36,6.29-3.61,1.52-7.5,2.28-11.66,2.28s-7.87-.76-11.48-2.28c-3.61-1.52-6.73-3.62-9.36-6.29-2.63-2.67-4.75-5.78-6.33-9.3-1.59-3.53-2.39-7.3-2.39-11.32Z"/></g><path class="c" d="M31.58,.18l39.48,70.87c2.08-3.55,4.37-7.56,6.89-12.03,2.51-4.47,4.8-8.66,6.88-12.58l6.61-12.3c1.71-2.94,3.3-5.84,4.77-8.72,1.47-2.87,3.06-5.72,4.77-8.54,1.47-2.69,3.09-5.51,4.87-8.45,1.77-2.94,3.46-5.75,5.05-8.45h22.03c.98,0,1.99,.03,3.03,.09,1.04,.06,2.17,.09,3.4,.09L70.69,125.4,35.44,62.79c-2.45-4.16-4.87-8.38-7.25-12.67-2.39-4.28-4.81-8.51-7.25-12.67-3.55-6.12-7.04-12.3-10.47-18.54C7.04,12.67,3.55,6.43,0,.18H31.58Z"/></g><g><g><path class="b" d="M269.02,152.26c-.02-.33-.05-.66-.05-1,0-.75,.08-1.47,.2-2.19h-56.62c.12,.71,.2,1.44,.2,2.19,0,.34-.03,.67-.05,1h56.33Z"/><path class="b" d="M368.82,152.26h64.35c-1.34-.75-2.64-1.74-3.45-3.18h-59.39c-.27,1.17-.8,2.25-1.52,3.18Z"/><path class="b" d="M129.89,149.07c.09,.71,.16,1.43,.16,2.19,0,.34-.02,.67-.04,1h56.32c-.02-.33-.05-.66-.05-1,0-.75,.08-1.47,.2-2.19h-56.58Z"/><path class="b" d="M441.75,149.07c1.37,.74,2.82,1.75,3.81,3.18h57.26v-3.18h-61.08Z"/><path class="b" d="M352.76,152.26v-3.18h-57.51c.12,.71,.2,1.44,.2,2.19,0,.34-.03,.67-.05,1h57.36Z"/><rect class="b" x="52.82" y="149.07" width="56.02" height="3.18"/></g><g><path class="b" d="M128.45,151.26c0,6.92-4.46,11.23-11.61,11.23h-6.41v-22.52h6.41c7.15-.01,11.61,4.32,11.61,11.29Zm-3.58-.01c0-4.78-3.1-7.77-8.05-7.77h-2.88v15.49h2.92c4.92,0,8.01-2.98,8.01-7.73Z"/><path class="b" d="M187.86,151.26c0-6.43,5.22-11.68,11.64-11.68s11.65,5.25,11.65,11.68-5.25,11.6-11.67,11.6-11.62-5.23-11.62-11.6Zm19.71-.03c0-4.46-3.65-8.09-8.09-8.09s-8.06,3.63-8.06,8.09,3.62,8.05,8.06,8.05,8.09-3.62,8.09-8.05Z"/><path class="b" d="M270.57,151.26c0-6.43,5.22-11.68,11.64-11.68s11.65,5.25,11.65,11.68-5.25,11.6-11.67,11.6-11.62-5.23-11.62-11.6Zm19.71-.03c0-4.46-3.65-8.09-8.09-8.09s-8.06,3.63-8.06,8.09,3.62,8.05,8.06,8.05,8.09-3.62,8.09-8.05Z"/><path class="b" d="M366.72,162.49l-6.06-8.72h-2.77v8.72h-3.53v-22.52h6.99c4.19,0,7.63,3.23,7.63,7.24,0,2.91-1.87,5.43-4.46,6.27l6.55,9.01h-4.35Zm-5.29-11.65c2.12,.01,3.9-1.7,3.9-3.72s-1.8-3.65-3.9-3.65h-3.55v7.36h3.55Z"/><path class="b" d="M429.39,158.54l2.79-2c1.01,1.76,2.88,2.77,5.04,2.77,2.53,0,4.44-1.22,4.44-2.93,0-2.08-2.96-3.34-5.59-4.47-2.64-1.17-5.57-2.54-5.57-6.08s3.2-6.26,7.25-6.26c3.21,0,5.62,1.55,6.54,4.02l-2.63,1.82c-.7-1.52-2.25-2.38-3.88-2.38-2.07,0-3.72,1.29-3.72,2.88,0,1.76,2.08,2.39,4.82,3.56,3.56,1.56,6.33,3.28,6.33,6.83,0,4-3.46,6.57-8.03,6.57-3.7,0-6.51-1.73-7.8-4.33Z"/></g></g></svg>